<svg width="109" height="110" viewBox="0 0 109 110" fill="none" xmlns="http://www.w3.org/2000/svg">
<path d="M108.305 0.777174C107.801 0.282174 107.092 0 106.346 0H2.65387C1.90813 0 1.19955 0.282174 0.69531 0.777174C0.191073 1.27217 -0.0557373 1.93696 0.0106096 2.60413L9.35226 96.8861C9.45045 97.8713 10.2121 98.7011 11.2684 98.9737L53.7569 109.909C53.9931 109.969 54.24 110 54.4841 110C54.7283 110 54.9751 109.969 55.2113 109.909L97.737 98.9737C98.7933 98.7011 99.5549 97.8713 99.6531 96.8861L108.989 2.60413C109.056 1.93696 108.806 1.27217 108.305 0.777174ZM19.9996 64.5748L38.5768 69.2187V21.5217H49.1923V83.6956L19.9996 76.3998V64.5748ZM89.1438 47.8261L86.3466 77.1196L59.8078 83.6956V72.6933L77.7215 68.2574L78.3849 59.29L59.8078 62.1739V21.5217H91.6543L90.7387 31.087H70.4233V50.2174L89.1438 47.8261Z" fill="#F5204F"/>
</svg>
