<svg width="64" height="64" viewBox="0 0 64 64" fill="none" xmlns="http://www.w3.org/2000/svg">
<g clip-path="url(#clip0_675_45)">
<path d="M47.4575 46.59C47.865 43.1975 47.7425 42.7025 50.2675 43.25L50.91 43.3075C52.8525 43.395 55.3925 42.995 56.91 42.3025C60.1225 40.8125 62.0275 38.3225 58.86 38.9775C51.635 40.4675 51.11 38.02 51.11 38.02C58.7425 26.695 61.935 12.32 59.1775 8.80254C51.6675 -0.797462 38.665 3.74254 38.4475 3.86254L38.3775 3.87504C36.9525 3.57504 35.3775 3.40004 33.5525 3.37504C30.2825 3.32504 27.8025 4.23254 25.9175 5.66004C25.9175 5.66004 2.72503 -3.89496 3.80253 17.6775C4.03253 22.2675 10.3775 52.4275 17.9525 43.3025C20.725 39.9675 23.4 37.15 23.4 37.15C24.725 38.0325 26.3175 38.4825 27.985 38.32L28.115 38.21C28.0766 38.6422 28.0942 39.0774 28.1675 39.505C26.2175 41.685 26.7925 42.0675 22.8925 42.87C18.9475 43.6825 21.2675 45.13 22.7775 45.51C24.6125 45.97 28.8575 46.62 31.7275 42.605L31.6125 43.0625C32.3775 43.675 32.325 47.4625 32.4375 50.1675C32.55 52.8725 32.7275 55.4 33.28 56.8875C33.8325 58.375 34.48 62.2125 39.605 61.1375C43.8875 60.22 47.1625 58.8975 47.4625 46.6125" fill="#F5204F"/>
<path d="M47.4575 46.59C47.865 43.1975 47.7425 42.7025 50.2675 43.25L50.91 43.3075C52.8525 43.395 55.3925 42.995 56.91 42.3025C60.1225 40.8125 62.0275 38.3225 58.86 38.9775C51.635 40.4675 51.11 38.02 51.11 38.02C58.7425 26.695 61.935 12.32 59.1775 8.80254C51.6675 -0.797462 38.665 3.74254 38.4475 3.86254L38.3775 3.87504C36.9525 3.57504 35.3775 3.40004 33.5525 3.37504C30.2825 3.32504 27.8025 4.23254 25.9175 5.66004C25.9175 5.66004 2.72503 -3.89496 3.80253 17.6775C4.03253 22.2675 10.3775 52.4275 17.9525 43.3025C20.725 39.9675 23.4 37.15 23.4 37.15C24.725 38.0325 26.3175 38.4825 27.985 38.32L28.115 38.21C28.0766 38.6422 28.0942 39.0774 28.1675 39.505C26.2175 41.685 26.7925 42.0675 22.8925 42.87C18.9475 43.6825 21.2675 45.13 22.7775 45.51C24.6125 45.97 28.8575 46.62 31.7275 42.605L31.6125 43.0625C32.3775 43.675 32.325 47.4625 32.4375 50.1675C32.55 52.8725 32.7275 55.4 33.28 56.8875C33.8325 58.375 34.48 62.2125 39.605 61.1375C43.8875 60.22 47.1625 58.8975 47.4625 46.6125" stroke="#F5204F" stroke-width="5.3725"/>
<path d="M58.8376 39C51.6126 40.49 51.0876 38.0425 51.0876 38.0425C58.7201 26.7175 61.9126 12.3425 59.1576 8.82502C51.6476 -0.774981 38.6451 3.76752 38.4276 3.88502L38.3576 3.89752C36.7695 3.57886 35.1548 3.41062 33.5351 3.39502C30.2651 3.34502 27.7851 4.25252 25.9001 5.68002C25.9001 5.68002 2.70511 -3.87498 3.78511 17.6975C4.01511 22.2875 10.3601 52.4475 17.9351 43.3225C20.7251 39.9675 23.4001 37.15 23.4001 37.15C24.7251 38.0325 26.3176 38.4825 27.9851 38.32L28.1151 38.21C28.0769 38.6421 28.0946 39.0774 28.1676 39.505C26.2176 41.685 26.7926 42.0675 22.8926 42.87C18.9476 43.6825 21.2676 45.13 22.7776 45.51C24.6126 45.97 28.8576 46.62 31.7276 42.605L31.6126 43.0625C32.3776 43.675 32.9126 47.045 32.8226 50.1C32.7326 53.155 32.6726 55.25 33.2726 56.89C33.8726 58.53 34.4726 62.215 39.5976 61.14C43.8801 60.2225 46.0976 57.84 46.4101 53.875C46.6301 51.055 47.1251 51.47 47.1601 48.95L47.5601 47.755C48.0176 43.93 47.6351 42.6975 50.2726 43.2725L50.9151 43.33C52.8576 43.4175 55.4001 43.0175 56.8901 42.325C60.1026 40.835 62.0051 38.345 58.8376 39Z" fill="#F5204F"/>
<path d="M32.0352 41.1675C31.8352 48.2825 32.0852 55.4475 32.7802 57.1675C33.4752 58.8875 34.9677 62.2925 40.0952 61.1975C44.3777 60.28 45.9377 58.5025 46.6127 54.58L48.1952 42.0375M25.8902 5.50003C25.8902 5.50003 2.68019 -3.98997 3.76019 17.5825C3.99019 22.1725 10.3352 52.3325 17.9102 43.2075C20.6752 39.875 23.1752 37.2675 23.1752 37.2675M38.4252 3.76753C37.6252 4.01753 51.3352 -1.24497 59.1302 8.71253C61.8802 12.23 58.6927 26.605 51.0602 37.93" stroke="black" stroke-width="1.79" stroke-linecap="round" stroke-linejoin="round"/>
<path d="M51.0627 37.9251C51.0627 37.9251 51.5627 40.3751 58.8127 38.8801C61.9802 38.2251 60.0727 40.7151 56.8627 42.2051C54.2277 43.4301 48.3177 43.7426 48.2202 42.0551C47.9702 37.6926 51.3302 39.0176 51.0877 37.9251C50.8677 36.9401 49.3627 35.9751 48.3727 33.5651C47.5052 31.4651 36.4727 15.3401 51.4327 17.7326C51.9827 17.6201 47.5327 3.48255 33.5327 3.27755C19.5327 3.07255 19.9752 20.4901 19.9752 20.4901" stroke="black" stroke-width="1.79" stroke-linecap="round" stroke-linejoin="bevel"/>
<path d="M28.1176 39.42C26.1676 41.6 26.7426 41.9825 22.8426 42.785C18.8976 43.5975 21.2176 45.045 22.7276 45.425C24.5626 45.885 28.8076 46.535 31.6776 42.5175C32.5526 41.2925 31.6726 39.3425 30.4726 38.8475C29.8926 38.6075 29.1176 38.3075 28.1226 39.4225L28.1176 39.42Z" stroke="black" stroke-width="1.79" stroke-linejoin="round"/>
<path d="M27.9903 39.3825C27.7903 38.1 28.4103 36.5775 29.0728 34.7925C30.0678 32.1175 32.3628 29.4425 30.5278 20.95C29.1603 14.625 19.9778 19.6325 19.9778 20.49C19.9778 21.3475 20.3928 24.84 19.8278 28.9025C19.0853 34.2075 23.2028 38.6925 27.9428 38.235" stroke="black" stroke-width="1.79" stroke-linecap="round" stroke-linejoin="round"/>
<path d="M25.8054 20.3625C25.7629 20.655 26.3429 21.4375 27.0954 21.5425C27.8479 21.6475 28.4904 21.0375 28.5329 20.7425C28.5754 20.4475 27.9954 20.1275 27.2429 20.0225C26.4904 19.9175 25.8429 20.0725 25.8054 20.3625Z" fill="black" stroke="black" stroke-width="0.5975"/>
<path d="M48.7156 19.765C48.7556 20.0575 48.1781 20.84 47.4256 20.945C46.6731 21.05 46.0256 20.44 45.9881 20.145C45.9506 19.85 46.5256 19.53 47.2781 19.425C48.0306 19.32 48.6781 19.475 48.7156 19.765Z" fill="black" stroke="black" stroke-width="0.2975"/>
<path d="M51.4054 17.7375C51.5304 20.0375 50.9104 21.6001 50.8304 24.0476C50.7154 27.6026 52.5254 31.6725 49.7979 35.7475" stroke="black" stroke-width="1.79" stroke-linecap="round" stroke-linejoin="round"/>
</g>
<defs>
<clipPath id="clip0_675_45">
<rect width="64" height="64" fill="white"/>
</clipPath>
</defs>
</svg>
