<svg width="16" height="16" viewBox="0 0 16 16" fill="none" xmlns="http://www.w3.org/2000/svg">
<g clip-path="url(#clip0_674_53)">
<path d="M6.375 7.12496V4.65796H8.155C9.128 4.65796 9.697 5.11496 9.697 5.89496C9.697 6.69696 9.093 7.12496 7.933 7.12496H6.375ZM6.375 10.887H8.273C9.457 10.887 10.083 10.407 10.083 9.50996C10.083 8.62496 9.433 8.16196 8.197 8.16196H6.375V10.887Z" fill="#F5204F"/>
<path d="M4.00195 0C2.94109 0 1.92367 0.421427 1.17353 1.17157C0.423381 1.92172 0.00195313 2.93913 0.00195312 4V12C0.00195313 13.0609 0.423381 14.0783 1.17353 14.8284C1.92367 15.5786 2.94109 16 4.00195 16H12.002C13.0628 16 14.0802 15.5786 14.8304 14.8284C15.5805 14.0783 16.002 13.0609 16.002 12V4C16.002 2.93913 15.5805 1.92172 14.8304 1.17157C14.0802 0.421427 13.0628 0 12.002 0L4.00195 0ZM5.06195 12V3.545H8.46095C10.048 3.545 11.004 4.354 11.004 5.655C11.004 6.539 10.354 7.33 9.52095 7.471V7.571C10.664 7.688 11.425 8.502 11.425 9.604C11.425 11.092 10.341 12 8.53695 12H5.06195Z" fill="#F5204F"/>
</g>
<defs>
<clipPath id="clip0_674_53">
<rect width="16" height="16" fill="white"/>
</clipPath>
</defs>
</svg>
