<svg width="41" height="41" viewBox="0 0 41 41" fill="none" xmlns="http://www.w3.org/2000/svg">
<path d="M0.00488281 2.86769C0.00488281 1.28519 1.31988 0.00268555 2.94238 0.00268555H37.0674C38.6899 0.00268555 40.0049 1.28519 40.0049 2.86769V37.1377C40.0049 38.7202 38.6899 40.0027 37.0674 40.0027H2.94238C1.31988 40.0027 0.00488281 38.7202 0.00488281 37.1377V2.86769ZM12.3624 33.4877V15.4252H6.35988V33.4877H12.3624ZM9.36238 12.9577C11.4549 12.9577 12.7574 11.5727 12.7574 9.83769C12.7199 8.06519 11.4574 6.71769 9.40238 6.71769C7.34738 6.71769 6.00488 8.06769 6.00488 9.83769C6.00488 11.5727 7.30738 12.9577 9.32238 12.9577H9.36238ZM21.6324 33.4877V23.4002C21.6324 22.8602 21.6724 22.3202 21.8324 21.9352C22.2649 20.8577 23.2524 19.7402 24.9124 19.7402C27.0849 19.7402 27.9524 21.3952 27.9524 23.8252V33.4877H33.9549V23.1277C33.9549 17.5777 30.9949 14.9977 27.0449 14.9977C23.8599 14.9977 22.4324 16.7477 21.6324 17.9802V18.0427H21.5924C21.6057 18.0218 21.619 18.001 21.6324 17.9802V15.4252H15.6324C15.7074 17.1202 15.6324 33.4877 15.6324 33.4877H21.6324Z" fill="#F5204F"/>
</svg>
