<svg width="800" height="800" viewBox="0 0 800 800" fill="none" xmlns="http://www.w3.org/2000/svg">
<path fill-rule="evenodd" clip-rule="evenodd" d="M593.5 173.25L593.4 173.1C555.734 140.261 510.385 117.466 461.56 106.829C412.734 96.1914 362.013 98.0561 314.1 112.25C266.307 126.689 222.968 153.042 188.158 188.832C153.347 224.622 128.207 268.674 115.1 316.85C87.9441 335.78 65.6405 360.853 50.0037 390.03C34.3669 419.207 25.8386 451.663 25.1126 484.758C24.3866 517.852 31.4834 550.651 45.8256 580.486C60.1679 610.32 81.3504 636.347 107.65 656.45C144.425 684.46 189.323 699.731 235.55 699.95H561.55C606.914 700.377 651.216 686.22 687.926 659.565C724.636 632.91 751.812 595.168 765.45 551.9C778.912 508.677 778.046 462.261 762.98 419.571C747.915 376.88 719.458 340.201 681.85 315C666.844 260.149 636.135 210.88 593.5 173.25ZM202.1 562.25C212.6 567 224 570.25 235.6 570.25L561.5 570.35C606.5 570.35 643 534.1 643 489.4C643 444.7 606.5 408.45 561.5 408.45V392.3C561.952 367.862 556.844 343.641 546.562 321.467C536.281 299.292 521.094 279.745 502.15 264.3H502.05C435.1 210.4 336.8 218.7 278.8 282L278.1 282.75C327.9 292.75 372.95 320.3 404.35 361.15L309.9 455.05C302.617 439.018 290.337 425.775 274.899 417.305C259.46 408.835 241.694 405.593 224.259 408.065C206.824 410.536 190.659 418.588 178.182 431.015C165.706 443.442 157.59 459.575 155.05 477C152.58 494.39 155.841 512.112 164.339 527.484C172.837 542.856 186.11 555.042 202.15 562.2L202.1 562.25Z" fill="#F5204F"/>
</svg>
