<svg width="800" height="330" viewBox="0 0 800 330" fill="none" xmlns="http://www.w3.org/2000/svg">
<path d="M206.125 25.875L152 37.375L151.75 215.375C151.75 248.25 176.5 269.5 209.375 269.5C227.625 269.5 241 266.125 248.375 262.125V219.875C241.25 222.75 206.25 233 206.25 200.25V121.25H248.375V74H206.25L206.125 25.875ZM317.5 90.375L314.125 74H266.125V265.5H321.5V136.625C334.625 119.375 356.75 122.75 363.875 125V74C356.375 71.375 330.5 66.5 317.5 90.375ZM432.875 0L377.125 11.875V57.125L432.875 45.25V0ZM56 130.375C56 121.75 63.25 118.375 74.875 118.25C91.75 118.25 113.25 123.375 130.125 132.5V80.25C111.75 73 93.375 70.125 75 70.125C30 70.125 0 93.625 0 132.875C0 194.375 84.375 184.375 84.375 210.875C84.375 221.125 75.5 224.5 63.125 224.5C44.75 224.5 21 216.875 2.375 206.75V256.75C23 265.625 43.875 269.375 63 269.375C109.125 269.375 140.875 249.625 140.875 209.625C140.875 143.5 56 155.375 56 130.375ZM799.875 172C799.875 115.125 772.375 70.25 719.625 70.25C666.875 70.25 634.75 115.125 634.75 171.625C634.75 238.5 672.625 269.375 726.625 269.375C753.125 269.375 773 263.375 788.125 255V213.25C773 220.875 755.625 225.5 733.625 225.5C712 225.5 693 217.875 690.5 191.875H799.125C799.375 189 799.875 177.375 799.875 172ZM690 151C690 126 705.375 115.5 719.25 115.5C732.875 115.5 747.375 126 747.375 151H690ZM548.875 70.25C527.125 70.25 513.125 80.5 505.375 87.625L502.5 73.875H453.625V329.875L509.125 318.125L509.25 255.375C517.25 261.25 529.125 269.375 548.5 269.375C588.25 269.375 624.5 240.375 624.5 169.875C624.625 105.375 587.875 70.25 548.875 70.25ZM535.625 223.375C522.625 223.375 514.875 218.625 509.5 212.875L509.125 130.375C514.875 124 522.875 119.375 535.625 119.375C555.875 119.375 569.875 142.125 569.875 171.125C570 201 556.25 223.375 535.625 223.375ZM377.25 265.5H433V74H377.25V265.5Z" fill="#F5204F"/>
</svg>
