<svg width="230" height="215" viewBox="0 0 230 215" fill="none" xmlns="http://www.w3.org/2000/svg">
<path d="M0 20C0 8.9543 8.95431 0 20 0H210C221.046 0 230 8.95431 230 20V195C230 206.046 221.046 215 210 215H20C8.9543 215 0 206.046 0 195V20ZM211.169 163.736C209.487 153.9 202.63 145.676 182.383 137.983C175.346 134.906 167.483 132.736 165.162 127.764C164.299 124.821 164.148 123.215 164.709 121.462C166.168 115.65 173.47 113.937 179.235 115.549C182.979 116.631 186.422 119.291 188.593 123.598C198.512 117.545 198.512 117.545 205.404 113.52C202.824 109.778 201.552 108.132 199.791 106.559C193.761 100.224 185.718 97.0053 172.651 97.2875L165.873 98.0938C159.397 99.5652 153.223 102.783 149.478 107.09C138.582 118.64 141.73 138.796 154.941 147.161C168.008 156.292 187.134 158.287 189.606 166.9C191.892 177.402 181.262 180.761 170.739 179.532C162.991 177.919 158.686 174.284 153.928 167.566L136.404 176.979C138.388 181.285 140.71 183.14 144.152 186.916C160.813 202.631 202.515 201.825 209.997 177.919C210.256 177.113 212.283 171.583 210.709 163.151L211.169 163.736ZM125.07 98.8194H103.543C103.543 116.174 103.428 133.428 103.428 150.822C103.428 161.848 104.025 171.993 102.12 175.111C98.9359 181.272 90.8141 180.499 87.1053 179.417C83.3247 177.671 81.3769 175.252 79.1703 171.751C78.5306 170.804 78.085 170.005 77.9341 170.005L60.4541 180.083C63.3722 185.72 67.6416 190.584 73.1472 193.661C81.3481 198.243 92.3522 199.715 103.881 197.303C111.37 195.274 117.846 191.108 121.21 184.672C126.112 176.34 125.063 166.128 125.027 154.679C125.142 136.27 125.027 117.867 125.027 99.3166L125.07 98.8194Z" fill="#F5204F"/>
</svg>
