<svg width="35" height="23" viewBox="0 0 35 23" fill="none" xmlns="http://www.w3.org/2000/svg">
<path d="M17.2341 0C14.4331 0.00865326 11.7276 1.00392 9.6064 2.806C7.98069 4.186 6.80279 5.98418 6.4993 7.78864C2.94225 8.56227 0.255371 11.615 0.255371 15.3013C0.255371 19.5835 3.88033 23 8.27994 23H27.1815C31.0336 23 34.2128 20.01 34.2128 16.2526C34.2128 12.8319 31.5769 10.0447 28.1981 9.57427C27.6824 4.17973 22.9432 0 17.2341 0ZM22.2301 14.3311L17.9854 18.5129C17.8868 18.6103 17.7697 18.6875 17.6408 18.7402C17.5119 18.7929 17.3737 18.82 17.2341 18.82C17.0945 18.82 16.9563 18.7929 16.8274 18.7402C16.6985 18.6875 16.5814 18.6103 16.4828 18.5129L12.2381 14.3311C12.1394 14.2339 12.0612 14.1185 12.0078 13.9915C11.9544 13.8645 11.9269 13.7284 11.9269 13.5909C11.9269 13.4534 11.9544 13.3173 12.0078 13.1903C12.0612 13.0633 12.1394 12.9479 12.2381 12.8507C12.4374 12.6544 12.7076 12.5441 12.9894 12.5441C13.1289 12.5441 13.2671 12.5712 13.396 12.6238C13.5249 12.6764 13.6421 12.7535 13.7407 12.8507L16.1729 15.249V7.31818C16.1729 7.04091 16.2847 6.77499 16.4837 6.57893C16.6827 6.38287 16.9527 6.27273 17.2341 6.27273C17.5155 6.27273 17.7855 6.38287 17.9845 6.57893C18.1835 6.77499 18.2953 7.04091 18.2953 7.31818V15.249L20.7275 12.8507C20.9267 12.6544 21.197 12.5441 21.4788 12.5441C21.7606 12.5441 22.0308 12.6544 22.2301 12.8507C22.4293 13.047 22.5413 13.3133 22.5413 13.5909C22.5413 13.8685 22.4293 14.1348 22.2301 14.3311V14.3311Z" fill="white"/>
</svg>
