<svg width="703" height="799" viewBox="0 0 703 799" fill="none" xmlns="http://www.w3.org/2000/svg">
<path d="M615.891 156.185C615.891 156.185 615.226 152.578 613.181 151.272C611.133 149.966 608.912 149.713 608.912 149.713L544.722 144.936L497.491 97.9783C495.698 96.6127 493.63 95.8143 491.527 95.3846C486.497 94.4096 479.733 95.5799 478.484 95.8721L453.981 103.455C443.337 72.033 428.797 49.6549 410.552 36.7112C397.061 27.1783 382.198 23.1252 366.234 24.333C362.881 19.869 359.187 15.9705 355.142 12.6955C337.433 -1.61228 314.587 -3.83416 287.258 6.06897C205.298 35.8346 170.505 142.052 157.961 195.111L86.5297 217.236C86.5297 217.236 69.7062 222.031 65.7594 226.749C61.4234 231.933 60.5937 245.969 60.5937 245.969L0 713.292L456.495 798.439L702.945 745.106L615.891 156.185ZM362.919 131.663L283.992 156.088C294.45 115.133 314.547 73.2815 352.969 56.9658C360.95 77.8627 363.153 106.458 362.919 131.663ZM296.623 31.8783C313.319 25.8158 326.145 26.0877 335.794 32.5987C284.294 56.0877 261.808 115.269 252.102 165.969L188.906 185.539C203.019 134.508 234.509 54.4315 296.623 31.8783ZM340.853 376.28C337.237 374.525 332.969 372.653 328.144 370.88C323.358 369.088 318.027 367.391 312.247 365.988C306.525 364.585 300.366 363.453 293.875 362.791C287.442 362.108 280.687 361.894 273.691 362.303C267.269 362.694 261.45 363.842 256.333 365.675C251.245 367.469 246.841 369.964 243.214 373.064C239.589 376.144 236.733 379.828 234.716 384.078C232.717 388.308 231.537 393.064 231.314 398.347C231.139 402.266 231.753 406.008 233.127 409.652C234.5 413.317 236.655 416.903 239.578 420.452C242.522 424.038 246.245 427.585 250.777 431.211C255.328 434.896 260.7 438.6 266.897 442.478C275.591 448.053 284.48 454.33 292.93 461.522C301.506 468.833 309.616 477.078 316.584 486.474C323.642 495.967 329.508 506.611 333.466 518.539C337.442 530.586 339.48 543.861 338.837 558.48C337.795 582.399 332.552 603.02 323.886 620.116C315.328 636.997 303.516 650.252 289.286 659.881C275.369 669.277 259.247 675.105 241.714 677.444C224.687 679.724 206.431 678.711 187.602 674.558C187.464 674.538 187.308 674.48 187.153 674.441C187.006 674.422 186.859 674.383 186.714 674.364C186.569 674.325 186.422 674.285 186.266 674.247C186.119 674.227 185.972 674.188 185.817 674.15C176.987 672.006 168.467 669.238 160.466 665.981C152.581 662.805 145.183 659.178 138.439 655.261C131.792 651.383 125.769 647.23 120.555 642.924C115.398 638.655 111.012 634.269 107.572 629.844L128.341 560.917C131.85 563.88 136.137 567.253 141.02 570.663C145.952 574.152 151.498 577.7 157.433 581.033C163.436 584.386 169.85 587.486 176.448 590.019C183.134 592.574 190.016 594.561 196.837 595.555C202.861 596.433 208.241 596.256 212.948 595.205C217.695 594.131 221.739 592.164 225.055 589.453C228.387 586.783 230.97 583.371 232.773 579.453C234.577 575.497 235.6 571.072 235.795 566.335C236.009 561.578 235.58 557.114 234.381 552.786C233.192 548.441 231.244 544.249 228.445 540.039C225.647 535.847 222.022 531.638 217.433 527.291C212.891 522.983 207.442 518.538 200.991 513.822C193.047 507.896 185.6 501.483 178.925 494.505C172.336 487.603 166.489 480.138 161.703 472.049C156.967 464.017 153.234 455.344 150.817 445.91C148.409 436.533 147.3 426.377 147.766 415.305C148.584 396.806 152.28 379.75 158.469 364.41C164.725 348.892 173.584 334.975 184.695 322.986C196.031 310.764 209.812 300.452 225.698 292.519C242.044 284.35 260.728 278.621 281.439 275.911C291.048 274.642 300.27 274.058 308.983 274.021C317.833 273.981 326.147 274.508 333.797 275.483C341.555 276.477 348.622 277.919 354.889 279.692C361.205 281.485 366.683 283.591 371.195 285.891L340.853 376.28ZM390.278 123.203C390.239 120.105 390.161 116.966 390.045 113.769C389.128 89.208 385.794 68.5252 380.122 51.7612C386.302 52.3846 391.916 54.4315 397.042 58.058C411.331 68.1752 421.622 88.544 428.873 111.253L390.278 123.203Z" fill="#F5204F"/>
</svg>
