<svg width="110" height="110" viewBox="0 0 110 110" fill="none" xmlns="http://www.w3.org/2000/svg">
<path d="M108.69 1.5288C107.712 0.555509 106.317 0 104.855 0H5.14853C3.68635 0 2.2911 0.555509 1.31288 1.5288C0.334662 2.50209 -0.128705 3.80134 0.0308989 5.09599L11.3679 96.1031C11.5945 97.9533 13.0618 99.5004 15.0697 100.01L53.5807 109.821C54.0441 109.94 54.5229 110 54.9965 110C55.4702 110 55.949 109.94 56.4124 109.821L94.9233 100.01C96.9313 99.5004 98.3934 97.9533 98.6251 96.1031L109.967 5.09599C110.132 3.80134 109.669 2.50209 108.69 1.5288ZM83.9827 34.111H38.0064L39.0979 45.7813H82.8758L79.591 80.2596L55.0171 87.2287L54.7752 87.1599L30.4741 80.2504L29.1458 66.202H41.0492L41.5692 71.6607L55.1458 74.328L68.4857 71.6561L69.9015 56.9053H28.25L25.027 22.9549H85.0536L83.9827 34.111Z" fill="#F5204F"/>
</svg>
