<svg width="41" height="40" viewBox="0 0 41 40" fill="none" xmlns="http://www.w3.org/2000/svg">
<path d="M20.0049 0.00268555C8.95488 0.00268555 0.00488281 8.95269 0.00488281 20.0027C0.00488281 28.8527 5.72988 36.3277 13.6799 38.9777C14.6799 39.1527 15.0549 38.5527 15.0549 38.0277C15.0549 37.5527 15.0299 35.9777 15.0299 34.3027C10.0049 35.2277 8.70488 33.0777 8.30488 31.9527C8.07988 31.3777 7.10488 29.6027 6.25488 29.1277C5.55488 28.7527 4.55488 27.8277 6.22988 27.8027C7.80488 27.7777 8.92988 29.2527 9.30488 29.8527C11.1049 32.8777 13.9799 32.0277 15.1299 31.5027C15.3049 30.2027 15.8299 29.3277 16.4049 28.8277C11.9549 28.3277 7.30488 26.6027 7.30488 18.9527C7.30488 16.7777 8.07988 14.9777 9.35488 13.5777C9.15488 13.0777 8.45488 11.0277 9.55488 8.27769C9.55488 8.27769 11.2299 7.75269 15.0549 10.3277C16.6549 9.87769 18.3549 9.65269 20.0549 9.65269C21.7549 9.65269 23.4549 9.87769 25.0549 10.3277C28.8799 7.72769 30.5549 8.27769 30.5549 8.27769C31.6549 11.0277 30.9549 13.0777 30.7549 13.5777C32.0299 14.9777 32.8049 16.7527 32.8049 18.9527C32.8049 26.6277 28.1299 28.3277 23.6799 28.8277C24.4049 29.4527 25.0299 30.6527 25.0299 32.5277C25.0299 35.2027 25.0049 37.3527 25.0049 38.0277C25.0049 38.5527 25.3799 39.1777 26.3799 38.9777C30.3505 37.6377 33.8007 35.086 36.2449 31.6821C38.6892 28.2781 40.0042 24.1933 40.0049 20.0027C40.0049 8.95269 31.0549 0.00268555 20.0049 0.00268555Z" fill="#F5204F"/>
</svg>
