<svg width="800" height="601" viewBox="0 0 800 601" fill="none" xmlns="http://www.w3.org/2000/svg">
<path d="M617.1 126.8L624.6 115.45L637.7 123.4L643.5 127.55C657.5 138.35 686.95 165.95 693.3 211.75C704.45 209.75 715.7 208.75 726.95 208.75C753.65 208.75 771.6 214.95 781.8 220.1L787.05 222.95L790.45 225.2L800 233L796.7 243C791.571 256.709 783.557 269.157 773.2 279.5C758.7 294.45 733.2 312.1 692.75 314.4L683.85 314.65H676.45C657.95 363.5 633.1 418.55 591.35 467.95C566.578 497.305 537.194 522.433 504.35 542.35C464.975 565.711 421.856 582.085 376.9 590.75C344.7 597 312 600.1 279.25 600C206.75 600 142.75 585.6 103.4 560.4C68.25 537.95 41.25 501.3 23.1 451.55C7.21631 406.09 -0.584817 358.201 0.0500081 310.05C-0.0322591 303.877 2.10204 297.878 6.06537 293.144C10.0287 288.41 15.5583 285.255 21.65 284.25L25.05 284H552.05L556.65 283.65L564.1 282.85C576.9 281.15 596.4 277.35 610.1 269.35C593.7 242.2 589.05 210.45 596.7 176.65C599.904 162.551 604.947 148.934 611.7 136.15L617.1 126.8ZM144.5 189.2L146.5 189.55C147.414 189.892 148.236 190.439 148.904 191.15C149.571 191.862 150.066 192.717 150.35 193.65L150.65 195.65V261.4L150.35 263.45C150.061 264.388 149.559 265.247 148.882 265.958C148.205 266.67 147.373 267.215 146.45 267.55L144.5 267.85H73.9C72.5842 267.832 71.3081 267.396 70.2564 266.605C69.2047 265.814 68.4319 264.709 68.05 263.45L67.7 261.45V195.6L68.05 193.6C68.3321 192.652 68.8316 191.784 69.5087 191.063C70.1858 190.343 71.0217 189.79 71.95 189.45L73.9 189.15L144.5 189.2ZM241.85 189.2L243.8 189.55C244.723 189.885 245.555 190.43 246.232 191.142C246.909 191.853 247.411 192.712 247.7 193.65L248 195.65V261.4L247.65 263.45C247.361 264.388 246.859 265.247 246.182 265.958C245.505 266.67 244.673 267.215 243.75 267.55L241.8 267.85H171.2C169.886 267.825 168.614 267.386 167.563 266.596C166.513 265.806 165.739 264.705 165.35 263.45L165 261.5V195.65C164.989 194.312 165.392 193.004 166.152 191.903C166.913 190.802 167.995 189.963 169.25 189.5L171.2 189.15L241.85 189.2ZM340.65 189.2L342.6 189.55C343.514 189.892 344.336 190.439 345.004 191.15C345.671 191.862 346.166 192.717 346.45 193.65L346.8 195.65V261.4L346.45 263.45C346.161 264.388 345.659 265.247 344.982 265.958C344.305 266.67 343.473 267.215 342.55 267.55L340.6 267.85H270C268.684 267.832 267.408 267.396 266.356 266.605C265.305 265.814 264.532 264.709 264.15 263.45L263.85 261.45V195.6L264.15 193.6C264.432 192.652 264.932 191.784 265.609 191.063C266.286 190.343 267.122 189.79 268.05 189.45L270 189.15L340.65 189.2ZM438.25 189.2L440.2 189.55C441.123 189.885 441.955 190.43 442.632 191.142C443.309 191.853 443.811 192.712 444.1 193.65L444.45 195.65V261.4C444.461 262.738 444.058 264.046 443.298 265.147C442.537 266.248 441.455 267.087 440.2 267.55L438.2 267.85H367.65C366.334 267.832 365.058 267.396 364.006 266.605C362.955 265.814 362.182 264.709 361.8 263.45L361.5 261.45V195.6L361.8 193.6C362.082 192.652 362.582 191.784 363.259 191.063C363.936 190.343 364.772 189.79 365.7 189.45L367.7 189.15H438.3L438.25 189.2ZM536.75 189.2L538.7 189.55C539.623 189.885 540.455 190.43 541.132 191.142C541.809 191.853 542.311 192.712 542.6 193.65L542.9 195.65V261.4C542.911 262.738 542.508 264.046 541.748 265.147C540.987 266.248 539.905 267.087 538.65 267.55L536.7 267.85H466.1C464.784 267.832 463.508 267.396 462.456 266.605C461.405 265.814 460.632 264.709 460.25 263.45L459.95 261.45V195.6L460.25 193.6C460.532 192.652 461.032 191.784 461.709 191.063C462.386 190.343 463.222 189.79 464.15 189.45L466.15 189.15H536.7L536.75 189.2ZM241.75 94.6L243.75 94.95C244.658 95.2868 245.477 95.8268 246.144 96.5287C246.812 97.2307 247.31 98.076 247.6 99L247.95 101.05V166.8C247.961 168.138 247.558 169.446 246.798 170.547C246.037 171.648 244.955 172.487 243.7 172.95L241.75 173.3H171.2C169.873 173.268 168.592 172.815 167.54 172.006C166.488 171.197 165.721 170.074 165.35 168.8L165 166.8V101.05C165 99.7206 165.407 98.4231 166.167 97.3324C166.927 96.2417 168.003 95.4102 169.25 94.95L171.2 94.6H241.75ZM340.55 94.6L342.55 94.95C343.458 95.2868 344.277 95.8268 344.944 96.5287C345.612 97.2307 346.11 98.076 346.4 99L346.75 101.05V166.8C346.761 168.138 346.358 169.446 345.598 170.547C344.837 171.648 343.755 172.487 342.5 172.95L340.55 173.3H270C268.673 173.268 267.392 172.815 266.34 172.006C265.288 171.197 264.521 170.074 264.15 168.8L263.85 166.8V101.05L264.15 99.05C264.439 98.1116 264.941 97.253 265.618 96.5416C266.295 95.8302 267.127 95.2854 268.05 94.95L270 94.6H340.55ZM438.2 94.6C440.9 94.6 443.2 96.45 444.05 99L444.4 101.05V166.8C444.411 168.138 444.008 169.446 443.248 170.547C442.487 171.648 441.405 172.487 440.15 172.95L438.15 173.3H367.65C366.323 173.268 365.042 172.815 363.99 172.006C362.938 171.197 362.171 170.074 361.8 168.8L361.5 166.8V101.05L361.8 99.05C362.089 98.1116 362.591 97.253 363.268 96.5416C363.945 95.8302 364.777 95.2854 365.7 94.95L367.7 94.6H438.3H438.2ZM438.2 0C440.9 0 443.2 1.85 444.05 4.4L444.4 6.4V72.2C444.411 73.5379 444.008 74.8464 443.248 75.9471C442.487 77.0478 441.405 77.8869 440.15 78.35L438.15 78.65H367.65C366.334 78.6324 365.058 78.1965 364.006 77.4055C362.955 76.6145 362.182 75.5093 361.8 74.25L361.5 72.25V6.4L361.8 4.4C362.089 3.46161 362.591 2.60297 363.268 1.89157C363.945 1.18016 364.777 0.635376 365.7 0.300002L367.65 0H438.25H438.2Z" fill="#F5204F"/>
</svg>
