<svg width="110" height="89" viewBox="0 0 110 89" fill="none" xmlns="http://www.w3.org/2000/svg">
<path d="M20.4715 0.0664467C15.4846 0.0664467 10.4219 2.68801 9.57849 4.12161C9.35848 4.71482 8.84828 9.50918 10.0583 9.50918C10.4617 9.50918 10.6467 9.6038 11.8201 8.86228C16.2203 6.53887 19.0082 6.59333 19.4115 6.59333C24.3617 5.95068 27.221 10.501 26.7809 16.3836V19.8402C22.6008 18.5055 20.2125 18.4595 19.0391 18.4595C12.9522 17.9652 7.3297 22.2917 7.3297 31.8029C7.3297 42.2336 14.2353 44.4643 16.9121 44.316C20.9089 44.3654 24.7235 41.9427 27.2536 37.7408C29.2704 43.8213 30.5543 43.4181 30.591 43.4181C30.9577 43.4181 31.2501 43.2211 31.5435 42.9739L33.6347 40.9946C34.0014 40.698 34.2927 40.2071 34.3294 39.6139C34.2927 38.1803 32.3851 35.9558 32.5318 30.9629V15.5436C32.7518 11.2923 31.7294 7.13208 29.6027 3.91885C27.0726 1.05166 23.7349 -0.329028 20.4715 0.0664467ZM91.5086 0.0664467C84.175 0.0664467 79.9613 6.24342 80.0713 12.5216C80.0713 21.1232 86.5212 23.8498 87.2545 24.1464C93.4514 26.7664 94.2971 26.8614 96.0205 28.8388C97.4872 30.8656 97.303 34.823 95.1396 36.5532C94.5162 37.0476 91.8366 39.2188 85.7864 37.5381C83.7696 36.9943 82.7097 36.3532 81.0596 35.4139C80.6196 35.2162 79.5915 34.869 79.5915 36.6981V39.1215C79.5915 40.2585 80.1034 41.292 80.8734 41.7863C84.7236 44.4064 89.344 44.5091 90.3341 44.5091C90.4807 44.5091 98.9121 44.5151 101.736 36.8429C102.319 35.261 103.828 29.4857 101.005 24.5422C98.6583 20.8347 96.6413 20.4388 90.6277 17.9671C90.1143 17.7694 85.6781 16.2311 85.7148 12.0292C85.4948 6.64083 90.9233 6.34963 92.06 6.4485C96.6435 6.34963 98.9132 8.66571 100.16 8.81401C100.71 8.81401 100.969 8.37374 100.969 7.38505V5.10643C101.006 4.56265 100.86 4.02583 100.64 3.58092C99.1731 1.01033 93.562 0.0664467 91.5086 0.0664467ZM35.8477 1.30231C35.4443 1.40117 35.1513 1.94611 35.2246 2.48989C35.2979 3.13253 35.3707 3.77827 35.5541 4.42092L43.7685 40.9463C43.9519 42.1328 44.5334 43.4227 45.8168 43.225H48.8247C50.6581 43.4721 50.9151 41.097 50.9518 40.8498L56.3445 10.3975L61.8089 40.8981C61.8456 41.1452 62.1034 43.5204 63.9002 43.2732H66.9439C68.2639 43.471 68.8876 42.181 69.0709 40.9946C78.3113 0.903355 77.6847 3.62881 77.7581 3.23333C77.9048 1.15709 77.0239 1.30115 76.8772 1.35058H73.6114C71.9614 1.10341 71.6365 3.13485 71.5632 3.6292L65.4757 35.3174L59.9755 3.6292C59.7188 1.20691 58.251 1.30115 57.8843 1.35058H55.0626C53.4492 1.15284 53.0456 2.88768 52.9356 3.6292L47.4712 34.8733L41.6057 3.6292C41.459 2.64051 40.9803 1.10457 39.5503 1.30231H35.8477ZM20.2495 24.1947C22.8895 24.2441 25.1684 24.7817 26.7451 25.276C26.7451 27.7478 26.8119 29.1342 26.4085 31.3588C25.8952 33.7316 23.6263 38.0378 18.2728 38.1367C15.1927 38.3344 13.1765 35.0664 13.3599 31.3588C13.1765 25.4267 17.7194 23.9475 20.2495 24.1947ZM102.817 54.4056C99.3944 54.4699 95.3547 55.5035 92.2892 58.4028C91.3432 59.2877 91.509 60.5163 92.5614 60.3532C96.0082 59.7946 103.68 58.5406 105.051 60.9035C106.426 63.2665 103.531 73.0151 102.251 77.3752C101.855 78.6753 102.692 79.2135 103.576 78.2249C109.311 71.749 110.801 58.1734 109.628 56.2208C109.039 55.2444 106.239 54.3413 102.817 54.4056ZM0.791052 59.349C-0.00853968 59.4973 -0.352932 60.8637 0.483098 61.9463C14.846 80.1085 33.8248 89 54.8979 89C69.9281 89 87.3768 82.3885 99.4223 69.9311C101.413 67.8598 99.7172 64.7562 97.6748 65.9821C84.17 74.0152 69.502 77.8869 56.1512 77.8869C36.3651 77.8869 17.2108 72.3179 1.71491 59.6677C1.37574 59.3908 1.05758 59.2996 0.791052 59.349Z" fill="#F5204F"/>
</svg>
