<svg width="800" height="800" viewBox="0 0 800 800" fill="none" xmlns="http://www.w3.org/2000/svg">
<g clip-path="url(#clip0_675_30)">
<path d="M540.467 225.4L537.967 238.433C534.1 263.133 535.5 270.2 546.1 279.367L556.333 287.833L545.733 335.1C539.4 363.3 531.633 386.933 526.7 394.7C522.467 401.4 517.533 411.267 516.467 416.567C514.7 422.9 508.7 429.267 499.533 434.9C491.433 439.5 475.533 451.833 464.267 461.733C455.267 469.833 449.067 474.8 445.7 476.933L434.7 485.633C431.167 491.3 429.167 495.867 428.4 499.333C427.633 502.9 428.067 505.267 429.2 507C430.3 508.667 432.2 509.833 434.8 510.567C437.878 511.288 441.046 511.546 444.2 511.333C451.336 510.846 458.398 509.594 465.267 507.6C467.6 506.967 469.433 506.367 471.033 505.833C473.5 502.8 479.2 497.067 489.3 487.1C516.1 460.667 526.333 446.2 515.767 450.1C511.867 451.5 513.633 447.967 520.333 440.9C534.467 427.133 542.567 406.333 559.5 341.1C572.9 289.6 572.9 288.867 582.767 288.867C587.4 288.867 600.5 289.667 600.5 289.667V225.4H570.433H540.467ZM668.433 330.9C666.3 330.9 662.767 334.1 660.667 337.633C656.8 343.967 661.367 347.833 719.567 384.167C754.133 406.067 782 424.733 781.3 426.167C780.6 427.2 752.367 445.567 718.533 466.733C657.133 504.8 656.8 505.167 662.433 512.933C669.5 522.1 662.433 525.267 742.133 475.533L800 438.5V410.633L735.433 370.767C700.533 348.9 670.2 331.267 668.433 330.9ZM132.267 334.8C130.5 334.8 100.167 352.8 65.2667 374.3L0 414.167V442.033L64.9 482.6C100.9 504.8 131.233 523.167 132.633 523.167C134.033 523.167 136.867 519.967 139.7 516.1C143.933 509.4 140.367 506.567 80.7667 468.833C24 433.2 18 428.267 23.6667 424.4C27.2 421.933 54 405.333 82.9333 387.367C148.9 346.8 145.367 349.6 140.067 341.133C137.967 337.633 134.4 334.467 132.3 334.8H132.267ZM421.733 335.567C412 335.5 391.067 350.333 328.4 401.5C325.7 407.933 325.467 412.367 326.7 415.233C327.5 417.2 328.967 418.567 331 419.567C333 420.567 335.6 421.167 338.467 421.4C344.167 421.9 350.9 421 356.333 419.933L360 419.1C361.255 417.417 362.903 416.067 364.8 415.167C368.667 413.033 384.9 398.233 401.133 382.367C429.7 353.433 436.4 340.367 424.767 336.133C423.812 335.754 422.76 335.561 421.733 335.567ZM494.933 355.667C486.367 355.9 470.933 365.833 444.5 386.933C431.233 397.7 422.833 403.5 418.333 404.7L400.867 418.5C394.3 430.5 393.333 437.933 395.067 442.033C395.5 443.045 396.13 443.96 396.92 444.727C397.709 445.493 398.643 446.096 399.667 446.5C402.213 447.506 404.929 448.015 407.667 448C414.209 447.93 420.713 446.977 427 445.167C430.277 444.287 433.513 443.264 436.7 442.1L437.667 441.7L439.433 440.767C442.767 436.467 450.433 428.367 460.033 419.033C490.367 389.767 505.867 368.967 502.7 361.2C501.267 357.433 498.8 355.533 494.933 355.667ZM414.133 391.667C411.667 391.933 406.133 396.2 396.167 404.933C381.767 417.667 366.067 425 360.633 421.733C359.371 422.019 358.104 422.285 356.833 422.533C351.3 423.633 344.4 424.533 338.233 424.033C335.328 423.857 332.48 423.145 329.833 421.933C327.337 420.792 325.345 418.776 324.233 416.267C323 413.267 323 409.533 324.4 404.767L302.733 422.567L253.7 463.133V528.9L414.367 402.333C414.335 400.948 414.515 399.565 414.9 398.233C416.133 393.767 416.067 391.5 414.133 391.7V391.667ZM483.267 412.967C480.833 412.967 476.767 416.4 470.267 423.3C461.433 432.733 447.533 441.867 440.167 443.733L439.033 444.333C437.824 444.833 436.601 445.3 435.367 445.733C433.367 446.4 430.767 447.2 427.767 448C421.767 449.633 414.3 451.133 407.633 450.967C404.49 450.963 401.378 450.351 398.467 449.167C395.723 448.036 393.524 445.885 392.333 443.167C390.4 438.533 391.167 432.033 395.4 422.8L253.667 534.433V574.6H315.933L448 470.867C451.433 467.067 456.6 461.867 463.567 455.367C482.233 438.067 486.467 432.1 486.467 423.267C486.467 416.4 485.7 412.933 483.267 412.933V412.967ZM514.7 477.967L503.4 489.233C497.067 495.233 485.767 502.633 478.033 505.8L476.5 506.467L476.4 506.633L476.067 506.967C475.767 507.2 475.633 507.233 475.4 507.333C472.313 508.502 469.177 509.536 466 510.433C458.937 512.489 451.673 513.774 444.333 514.267C440.863 514.489 437.379 514.186 434 513.367C431.067 512.721 428.478 511.011 426.733 508.567C425.133 506.1 424.667 502.8 425.567 498.733C426.282 495.838 427.346 493.04 428.733 490.4L322.167 574.6H463.9L480.833 555.2C504.1 528.067 514.7 508.667 514.7 492.067V477.967Z" fill="#F5204F"/>
</g>
<defs>
<clipPath id="clip0_675_30">
<rect width="800" height="800" fill="white"/>
</clipPath>
</defs>
</svg>
