<svg width="800" height="800" viewBox="0 0 800 800" fill="none" xmlns="http://www.w3.org/2000/svg">
<g clip-path="url(#clip0_674_41)">
<path d="M474.366 91.7L638.866 186.667C651.866 173 670.2 164.533 690.5 164.533C729.866 164.533 761.766 196.433 761.766 235.8C761.766 269.167 738.833 297.2 707.866 304.933L707.366 305.033V495.033C739 502.8 762.1 530.9 762.1 564.4C762.1 603.8 730.166 635.733 690.766 635.733C669.533 635.733 650.5 626.467 637.433 611.767L637.366 611.7L473.866 706.1C476.166 712.833 477.5 720.567 477.5 728.6C477.5 768 445.566 799.933 406.166 799.933C366.766 799.933 334.833 768 334.833 728.6C334.833 721.4 335.9 714.433 337.9 707.9L337.766 708.4L173.066 613.6C160.066 627.167 141.766 635.6 121.533 635.6C82.1331 635.6 50.1998 603.667 50.1998 564.267C50.1998 530.867 73.1665 502.8 104.166 495.067L104.666 494.967V305C72.9665 297.3 49.7998 269.133 49.7998 235.6C49.7998 196.2 81.7331 164.267 121.133 164.267C134.333 164.267 146.733 167.867 157.333 174.133L157 173.967C163.133 177.5 168.4 181.667 172.966 186.5L173 186.533L337.6 91.5333C335.733 85.4667 334.666 78.5 334.666 71.2667C334.666 31.9 366.6 -0.0333252 405.966 -0.0333252C445.333 -0.0333252 477.266 31.9 477.266 71.2667C477.266 78.5667 476.166 85.6 474.133 92.2333L474.266 91.7333L474.366 91.7ZM457.2 120.933C456.566 121.633 455.966 122.233 455.3 122.833L455.266 122.867L670.633 495.867C671.5 495.567 672.5 495.333 673.366 495.1V304.867C642.1 296.933 619.333 269 619.333 235.8C619.333 229.7 620.1 223.767 621.533 218.1L621.433 218.6C621.633 217.8 621.833 216.967 622.066 216.2L457.2 120.933ZM356.7 122.9L354.7 120.9L189.833 215.967C191.6 221.867 192.633 228.667 192.633 235.7C192.633 268 171.133 295.267 141.633 304L141.133 304.133L138.6 304.833V495.1L141.4 495.867L356.766 122.867L356.7 122.9ZM425.9 139.8C419.933 141.567 413.1 142.6 406.033 142.6C398.966 142.6 392.133 141.567 385.666 139.667L386.166 139.8L170.833 512.767C180.366 521.967 187.366 533.733 190.733 546.967L190.833 547.467H621.2C624.6 533.7 631.633 521.867 641.166 512.7L641.2 512.667L426 139.8H425.9ZM458.766 680.7L622.666 586.1C622.166 584.533 621.766 582.967 621.4 581.367H190.733L190.033 584.133L354.666 679.2C367.666 665.767 385.866 657.433 406 657.433C426.866 657.433 445.633 666.367 458.7 680.633L458.766 680.7Z" fill="#F5204F"/>
</g>
<defs>
<clipPath id="clip0_674_41">
<rect width="800" height="800" fill="white"/>
</clipPath>
</defs>
</svg>
