<svg width="51" height="34" viewBox="0 0 51 34" fill="none" xmlns="http://www.w3.org/2000/svg">
<path d="M0.561953 33V31.845C2.54195 31.845 3.69695 31.4783 4.02695 30.745V3.08C3.69695 2.34667 2.54195 1.98 0.561953 1.98V0.824998H12.552V1.98C10.572 1.98 9.41695 2.34667 9.08695 3.08V31.13H21.627C22.5436 30.7267 23.3686 29.5717 24.102 27.665H25.202L23.882 33H0.561953ZM39.1784 33.55C37.3817 33.55 35.5484 33.275 33.6784 32.725C31.8084 32.175 30.8367 31.9 30.7634 31.9C30.5434 31.9 30.2867 32.01 29.9934 32.23C29.7001 32.45 29.5534 32.7067 29.5534 33H28.2884V25.355H29.4984C29.9017 27.555 30.9834 29.1683 32.7434 30.195C34.5401 31.185 36.5751 31.68 38.8484 31.68C40.7917 31.68 42.3867 31.24 43.6334 30.36C44.8801 29.48 45.5034 28.16 45.5034 26.4C45.5034 25.5933 45.3201 24.86 44.9534 24.2C44.6234 23.54 44.0917 22.935 43.3584 22.385C42.6617 21.7983 41.9834 21.3217 41.3234 20.955C40.6634 20.5517 39.8017 20.075 38.7384 19.525C37.7117 18.9383 36.9234 18.48 36.3734 18.15C35.0901 17.3433 34.1367 16.7383 33.5134 16.335C32.8901 15.895 32.0834 15.2533 31.0934 14.41C30.1401 13.5667 29.4434 12.6867 29.0034 11.77C28.5634 10.8533 28.3434 9.86333 28.3434 8.8C28.3434 6.63667 29.3334 4.675 31.3134 2.915C33.2934 1.155 35.5117 0.274998 37.9684 0.274998C39.0317 0.274998 40.3517 0.549998 41.9284 1.1C43.5051 1.65 44.4034 1.925 44.6234 1.925C45.0634 1.925 45.2834 1.55833 45.2834 0.824998H46.5484L47.0984 7.81H45.8884C45.6684 6.19666 44.8617 4.85833 43.4684 3.795C42.0751 2.695 40.2601 2.145 38.0234 2.145C36.3367 2.145 34.9801 2.695 33.9534 3.795C32.9634 4.85833 32.4684 5.94 32.4684 7.04C32.4684 7.73667 32.6334 8.39667 32.9634 9.02C33.2934 9.60667 33.8067 10.1567 34.5034 10.67C35.2001 11.1833 35.8601 11.6417 36.4834 12.045C37.1067 12.4117 37.9317 12.87 38.9584 13.42C40.0217 13.97 40.8284 14.41 41.3784 14.74C42.8817 15.6567 43.9634 16.335 44.6234 16.775C45.2834 17.215 46.1267 17.8933 47.1534 18.81C48.2167 19.7267 48.9501 20.68 49.3534 21.67C49.7934 22.6233 50.0134 23.6867 50.0134 24.86C50.0134 27.5733 48.9134 29.7 46.7134 31.24C44.5134 32.78 42.0017 33.55 39.1784 33.55Z" fill="#08080A"/>
</svg>
