<svg width="61" height="61" viewBox="0 0 61 61" fill="none" xmlns="http://www.w3.org/2000/svg">
<g clip-path="url(#clip0_657_32)">
<mask id="mask0_657_32" style="mask-type:luminance" maskUnits="userSpaceOnUse" x="0" y="0" width="61" height="61">
<path d="M60.1448 0.39209H0.144775V60.3921H60.1448V0.39209Z" fill="white"/>
</mask>
<g mask="url(#mask0_657_32)">
<path d="M49.3827 35.9356L49.1262 36.3375L49.5154 36.6129C49.7505 36.7791 49.9711 36.9648 50.1749 37.168C50.644 37.6365 51.0162 38.1929 51.2701 38.8053C51.5241 39.4178 51.6548 40.0744 51.6548 40.7374C51.6548 41.4005 51.5241 42.0571 51.2701 42.6696C51.0161 43.2821 50.6439 43.8385 50.1747 44.307L50.1696 44.3121L50.1647 44.3173C45.5865 49.1579 40.526 53.5184 35.062 57.3311C33.1519 58.5591 31.0031 59.3682 28.7573 59.705C26.5114 60.0419 24.2195 59.8988 22.033 59.2851C19.3864 58.437 16.9512 57.0337 14.8901 55.1692C12.8268 53.3026 11.1861 51.0169 10.0778 48.4648L10.0709 48.4488L10.0628 48.4333C8.68796 45.79 7.85662 42.898 7.61787 39.9281C7.37937 36.9613 7.73704 33.9769 8.66976 31.1505C9.61268 28.6252 11.0529 26.3148 12.905 24.3562C14.7549 22.4 16.9782 20.8345 19.4433 19.7523C21.3306 19.0972 23.3747 19.0432 25.2941 19.5981L25.5777 19.6801L25.7865 19.4713L42.6202 2.63758L42.6203 2.63761L42.6248 2.63301C43.1746 2.06889 43.831 1.61954 44.5558 1.31107C45.2806 1.00261 46.0595 0.84116 46.8472 0.836062C47.6349 0.830964 48.4159 0.982345 49.1446 1.28141C49.8734 1.58047 50.5355 2.02126 51.0926 2.57822C51.6497 3.13517 52.0906 3.79721 52.3898 4.52593C52.689 5.25464 52.8405 6.0355 52.8356 6.82323C52.8307 7.61096 52.6694 8.38983 52.3611 9.11472C52.0528 9.8396 51.6035 10.4961 51.0395 11.046L51.0395 11.046L51.035 11.0504L42.41 19.6755L41.8148 20.2707L42.6223 20.5086C43.4511 20.7528 44.2078 21.1955 44.8269 21.7982C45.5806 22.5566 46.1002 23.5159 46.3236 24.5615C46.5473 25.6085 46.4646 26.6976 46.0854 27.6988L45.8871 28.2224L46.4297 28.3604C47.2877 28.5788 48.0719 29.0224 48.701 29.6454C49.5131 30.4598 50.0234 31.5268 50.1474 32.6702C50.2715 33.814 50.0017 34.9659 49.3827 35.9356ZM48.4214 42.6106L48.4385 42.5925C48.4763 42.555 48.513 42.5163 48.5484 42.4766L48.5585 42.4659V42.4652C48.7403 42.259 48.889 42.0252 48.9986 41.7722C49.1378 41.4508 49.2113 41.1048 49.2148 40.7546H49.2148L49.2148 40.7488C49.2142 40.3856 49.1378 40.0266 48.9904 39.6947C48.843 39.3627 48.6278 39.0652 48.3587 38.8213C48.0897 38.5773 47.7726 38.3923 47.4278 38.278C47.0831 38.1637 46.7182 38.1227 46.3568 38.1576L46.2568 38.1673L46.1684 38.2147L44.482 39.1197C44.4817 39.1199 44.4813 39.1201 44.481 39.1203C44.2229 39.2576 43.9242 39.298 43.6389 39.234C43.3532 39.17 43.1001 39.0056 42.9252 38.7707C42.7504 38.5358 42.6657 38.246 42.6864 37.954C42.707 37.6622 42.8317 37.3873 43.0378 37.1795C43.679 36.5353 44.4828 36.0769 45.3636 35.853L45.423 35.8379L45.477 35.8089L46.9995 34.9914L47.0914 34.9421L47.1559 34.8601C47.5647 34.3406 47.7608 33.6852 47.7045 33.0265C47.6481 32.3679 47.3435 31.7552 46.8524 31.3128C46.3612 30.8703 45.7202 30.631 45.0592 30.6435C44.4123 30.6557 43.7936 30.908 43.323 31.3507L43.2945 31.3707L43.2602 31.4068L43.2227 31.4461L43.2226 31.4461L43.2153 31.4541C43.1073 31.5726 42.9769 31.6687 42.8317 31.7368C42.6865 31.805 42.5293 31.8439 42.3691 31.8513C42.2089 31.8588 42.0488 31.8345 41.8979 31.78C41.747 31.7256 41.6083 31.6419 41.4898 31.5339C41.3712 31.4258 41.2751 31.2955 41.207 31.1503C41.1388 31.0052 41.0999 30.8479 41.0925 30.6876C41.0851 30.5274 41.1093 30.3673 41.1638 30.2164C41.2182 30.0656 41.3019 29.9269 41.41 29.8084L43.0452 28.0166C43.341 27.7299 43.5777 27.388 43.742 27.0101C43.9086 26.6269 43.9974 26.2144 44.0032 25.7966C44.009 25.3789 43.9317 24.9641 43.7758 24.5764C43.6199 24.1888 43.3886 23.836 43.0952 23.5385L43.0899 23.5332L43.0845 23.5281C42.491 22.9613 41.7018 22.645 40.8811 22.645C40.0659 22.645 39.2818 22.9571 38.6896 23.5167C38.6238 23.5713 38.552 23.6183 38.4756 23.6568L38.4038 23.6929L38.347 23.7497L36.067 26.0278L36.0669 26.028C35.8374 26.2574 35.5262 26.3864 35.2017 26.3864C34.8772 26.3864 34.566 26.2574 34.3365 26.028C34.107 25.7985 33.9781 25.4873 33.9781 25.1628C33.9781 24.8382 34.107 24.527 34.3365 24.2976L49.299 9.33506C49.9564 8.67763 50.3258 7.78599 50.3258 6.85623C50.3258 5.92648 49.9565 5.03477 49.299 4.37734C48.6416 3.7199 47.7499 3.35055 46.8201 3.35055C45.8904 3.35055 44.9987 3.71991 44.3413 4.37732L26.8007 21.9161L26.8006 21.9161L19.8857 28.833C19.6562 29.0624 19.3449 29.1914 19.0204 29.1914C18.6959 29.1914 18.3847 29.0624 18.1552 28.833C17.9258 28.6035 17.7969 28.2923 17.7969 27.9678C17.7969 27.6432 17.9258 27.332 18.1552 27.1026L22.7396 22.5182L23.5623 21.6955L22.3993 21.6648C21.7324 21.6472 21.0683 21.7561 20.442 21.9858L20.4274 21.9912L20.4132 21.9974C18.252 22.9461 16.3027 24.3182 14.6805 26.0326C13.0582 27.747 11.7958 29.769 10.9679 31.9793L10.964 31.9897L10.9605 32.0002C10.1407 34.525 9.83457 37.1883 10.0602 39.8332C10.2851 42.4704 11.0342 45.036 12.2633 47.3798C13.1942 49.631 14.606 51.6516 16.3999 53.3C18.1996 54.9537 20.34 56.1926 22.6703 56.9295L22.6782 56.932L22.6861 56.9342C24.5425 57.4547 26.4882 57.5758 28.3949 57.2893C30.3015 57.0027 32.1258 56.3152 33.7472 55.272L33.7557 55.2666L33.764 55.2608C39.0592 51.5431 43.9694 47.3053 48.4214 42.6106Z" fill="black" stroke="#FF0000"/>
</g>
</g>
<defs>
<clipPath id="clip0_657_32">
<rect width="60" height="60" fill="white" transform="translate(0.144775 0.39209)"/>
</clipPath>
</defs>
</svg>
